<?xml version="1.0" encoding="utf-8" standalone="no"?>
<!DOCTYPE svg PUBLIC "-//W3C//DTD SVG 1.1//EN"
  "http://www.w3.org/Graphics/SVG/1.1/DTD/svg11.dtd">
<!-- Created with matplotlib (https://matplotlib.org/) -->
<svg height="360pt" version="1.1" viewBox="0 0 720 360" width="720pt" xmlns="http://www.w3.org/2000/svg" xmlns:xlink="http://www.w3.org/1999/xlink">
 <metadata>
  <rdf:RDF xmlns:cc="http://creativecommons.org/ns#" xmlns:dc="http://purl.org/dc/elements/1.1/" xmlns:rdf="http://www.w3.org/1999/02/22-rdf-syntax-ns#">
   <cc:Work>
    <dc:type rdf:resource="http://purl.org/dc/dcmitype/StillImage"/>
    <dc:date>2021-10-11T09:19:14.670426</dc:date>
    <dc:format>image/svg+xml</dc:format>
    <dc:creator>
     <cc:Agent>
      <dc:title>Matplotlib v3.3.4, https://matplotlib.org/</dc:title>
     </cc:Agent>
    </dc:creator>
   </cc:Work>
  </rdf:RDF>
 </metadata>
 <defs>
  <style type="text/css">*{stroke-linecap:butt;stroke-linejoin:round;}</style>
 </defs>
 <g id="figure_1">
  <g id="patch_1">
   <path d="M 0 360 
L 720 360 
L 720 0 
L 0 0 
z
" style="fill:none;"/>
  </g>
  <g id="axes_1">
   <g id="patch_2">
    <path d="M 90 315 
L 648 315 
L 648 43.2 
L 90 43.2 
z
" style="fill:#ffffff;"/>
   </g>
   <g id="patch_3">
    <path clip-path="url(#p99872f6e5c)" d="M 115.363636 315 
L 130.642935 315 
L 130.642935 314.572843 
L 115.363636 314.572843 
z
" style="fill:#b2cae1;"/>
   </g>
   <g id="patch_4">
    <path clip-path="url(#p99872f6e5c)" d="M 136.754655 315 
L 152.033954 315 
L 152.033954 314.829137 
L 136.754655 314.829137 
z
" style="fill:#b2cae1;"/>
   </g>
   <g id="patch_5">
    <path clip-path="url(#p99872f6e5c)" d="M 158.145674 315 
L 173.424973 315 
L 173.424973 312.864215 
L 158.145674 312.864215 
z
" style="fill:#b2cae1;"/>
   </g>
   <g id="patch_6">
    <path clip-path="url(#p99872f6e5c)" d="M 179.536692 315 
L 194.815991 315 
L 194.815991 298.682603 
L 179.536692 298.682603 
z
" style="fill:#b2cae1;"/>
   </g>
   <g id="patch_7">
    <path clip-path="url(#p99872f6e5c)" d="M 200.927711 315 
L 216.20701 315 
L 216.20701 264.424611 
L 200.927711 264.424611 
z
" style="fill:#b2cae1;"/>
   </g>
   <g id="patch_8">
    <path clip-path="url(#p99872f6e5c)" d="M 222.318729 315 
L 237.598028 315 
L 237.598028 197.360962 
L 222.318729 197.360962 
z
" style="fill:#b2cae1;"/>
   </g>
   <g id="patch_9">
    <path clip-path="url(#p99872f6e5c)" d="M 243.709748 315 
L 258.989047 315 
L 258.989047 160.796322 
L 243.709748 160.796322 
z
" style="fill:#b2cae1;"/>
   </g>
   <g id="patch_10">
    <path clip-path="url(#p99872f6e5c)" d="M 265.100767 315 
L 280.380066 315 
L 280.380066 149.263083 
L 265.100767 149.263083 
z
" style="fill:#b2cae1;"/>
   </g>
   <g id="patch_11">
    <path clip-path="url(#p99872f6e5c)" d="M 286.491785 315 
L 301.771084 315 
L 301.771084 149.263083 
L 286.491785 149.263083 
z
" style="fill:#b2cae1;"/>
   </g>
   <g id="patch_12">
    <path clip-path="url(#p99872f6e5c)" d="M 307.882804 315 
L 323.162103 315 
L 323.162103 157.806223 
L 307.882804 157.806223 
z
" style="fill:#b2cae1;"/>
   </g>
   <g id="patch_13">
    <path clip-path="url(#p99872f6e5c)" d="M 329.273823 315 
L 344.553122 315 
L 344.553122 149.69024 
L 329.273823 149.69024 
z
" style="fill:#b2cae1;"/>
   </g>
   <g id="patch_14">
    <path clip-path="url(#p99872f6e5c)" d="M 350.664841 315 
L 365.94414 315 
L 365.94414 153.790948 
L 350.664841 153.790948 
z
" style="fill:#b2cae1;"/>
   </g>
   <g id="patch_15">
    <path clip-path="url(#p99872f6e5c)" d="M 372.05586 315 
L 387.335159 315 
L 387.335159 153.705516 
L 372.05586 153.705516 
z
" style="fill:#b2cae1;"/>
   </g>
   <g id="patch_16">
    <path clip-path="url(#p99872f6e5c)" d="M 393.446878 315 
L 408.726177 315 
L 408.726177 148.750495 
L 393.446878 148.750495 
z
" style="fill:#b2cae1;"/>
   </g>
   <g id="patch_17">
    <path clip-path="url(#p99872f6e5c)" d="M 414.837897 315 
L 430.117196 315 
L 430.117196 151.4843 
L 414.837897 151.4843 
z
" style="fill:#b2cae1;"/>
   </g>
   <g id="patch_18">
    <path clip-path="url(#p99872f6e5c)" d="M 436.228916 315 
L 451.508215 315 
L 451.508215 148.067044 
L 436.228916 148.067044 
z
" style="fill:#b2cae1;"/>
   </g>
   <g id="patch_19">
    <path clip-path="url(#p99872f6e5c)" d="M 457.619934 315 
L 472.899233 315 
L 472.899233 143.795474 
L 457.619934 143.795474 
z
" style="fill:#b2cae1;"/>
   </g>
   <g id="patch_20">
    <path clip-path="url(#p99872f6e5c)" d="M 479.010953 315 
L 494.290252 315 
L 494.290252 143.368317 
L 479.010953 143.368317 
z
" style="fill:#b2cae1;"/>
   </g>
   <g id="patch_21">
    <path clip-path="url(#p99872f6e5c)" d="M 500.401972 315 
L 515.681271 315 
L 515.681271 139.523904 
L 500.401972 139.523904 
z
" style="fill:#b2cae1;"/>
   </g>
   <g id="patch_22">
    <path clip-path="url(#p99872f6e5c)" d="M 521.79299 315 
L 537.072289 315 
L 537.072289 134.654314 
L 521.79299 134.654314 
z
" style="fill:#b2cae1;"/>
   </g>
   <g id="patch_23">
    <path clip-path="url(#p99872f6e5c)" d="M 543.184009 315 
L 558.463308 315 
L 558.463308 134.312588 
L 543.184009 134.312588 
z
" style="fill:#b2cae1;"/>
   </g>
   <g id="patch_24">
    <path clip-path="url(#p99872f6e5c)" d="M 564.575027 315 
L 579.854326 315 
L 579.854326 140.036492 
L 564.575027 140.036492 
z
" style="fill:#b2cae1;"/>
   </g>
   <g id="patch_25">
    <path clip-path="url(#p99872f6e5c)" d="M 585.966046 315 
L 601.245345 315 
L 601.245345 145.845827 
L 585.966046 145.845827 
z
" style="fill:#b2cae1;"/>
   </g>
   <g id="patch_26">
    <path clip-path="url(#p99872f6e5c)" d="M 607.357065 315 
L 622.636364 315 
L 622.636364 150.88628 
L 607.357065 150.88628 
z
" style="fill:#b2cae1;"/>
   </g>
   <g id="patch_27">
    <path clip-path="url(#p99872f6e5c)" d="M 115.363636 314.572843 
L 130.642935 314.572843 
L 130.642935 314.572843 
L 115.363636 314.572843 
z
" style="fill:#8c8bc0;"/>
   </g>
   <g id="patch_28">
    <path clip-path="url(#p99872f6e5c)" d="M 136.754655 314.829137 
L 152.033954 314.829137 
L 152.033954 314.829137 
L 136.754655 314.829137 
z
" style="fill:#8c8bc0;"/>
   </g>
   <g id="patch_29">
    <path clip-path="url(#p99872f6e5c)" d="M 158.145674 312.864215 
L 173.424973 312.864215 
L 173.424973 312.864215 
L 158.145674 312.864215 
z
" style="fill:#8c8bc0;"/>
   </g>
   <g id="patch_30">
    <path clip-path="url(#p99872f6e5c)" d="M 179.536692 298.682603 
L 194.815991 298.682603 
L 194.815991 298.340877 
L 179.536692 298.340877 
z
" style="fill:#8c8bc0;"/>
   </g>
   <g id="patch_31">
    <path clip-path="url(#p99872f6e5c)" d="M 200.927711 264.424611 
L 216.20701 264.424611 
L 216.20701 262.459689 
L 200.927711 262.459689 
z
" style="fill:#8c8bc0;"/>
   </g>
   <g id="patch_32">
    <path clip-path="url(#p99872f6e5c)" d="M 222.318729 197.360962 
L 237.598028 197.360962 
L 237.598028 188.73239 
L 222.318729 188.73239 
z
" style="fill:#8c8bc0;"/>
   </g>
   <g id="patch_33">
    <path clip-path="url(#p99872f6e5c)" d="M 243.709748 160.796322 
L 258.989047 160.796322 
L 258.989047 144.478925 
L 243.709748 144.478925 
z
" style="fill:#8c8bc0;"/>
   </g>
   <g id="patch_34">
    <path clip-path="url(#p99872f6e5c)" d="M 265.100767 149.263083 
L 280.380066 149.263083 
L 280.380066 127.392645 
L 265.100767 127.392645 
z
" style="fill:#8c8bc0;"/>
   </g>
   <g id="patch_35">
    <path clip-path="url(#p99872f6e5c)" d="M 286.491785 149.263083 
L 301.771084 149.263083 
L 301.771084 126.367468 
L 286.491785 126.367468 
z
" style="fill:#8c8bc0;"/>
   </g>
   <g id="patch_36">
    <path clip-path="url(#p99872f6e5c)" d="M 307.882804 157.806223 
L 323.162103 157.806223 
L 323.162103 133.970863 
L 307.882804 133.970863 
z
" style="fill:#8c8bc0;"/>
   </g>
   <g id="patch_37">
    <path clip-path="url(#p99872f6e5c)" d="M 329.273823 149.69024 
L 344.553122 149.69024 
L 344.553122 125.171429 
L 329.273823 125.171429 
z
" style="fill:#8c8bc0;"/>
   </g>
   <g id="patch_38">
    <path clip-path="url(#p99872f6e5c)" d="M 350.664841 153.790948 
L 365.94414 153.790948 
L 365.94414 127.734371 
L 350.664841 127.734371 
z
" style="fill:#8c8bc0;"/>
   </g>
   <g id="patch_39">
    <path clip-path="url(#p99872f6e5c)" d="M 372.05586 153.705516 
L 387.335159 153.705516 
L 387.335159 127.905233 
L 372.05586 127.905233 
z
" style="fill:#8c8bc0;"/>
   </g>
   <g id="patch_40">
    <path clip-path="url(#p99872f6e5c)" d="M 393.446878 148.750495 
L 408.726177 148.750495 
L 408.726177 121.839604 
L 393.446878 121.839604 
z
" style="fill:#8c8bc0;"/>
   </g>
   <g id="patch_41">
    <path clip-path="url(#p99872f6e5c)" d="M 414.837897 151.4843 
L 430.117196 151.4843 
L 430.117196 122.864781 
L 414.837897 122.864781 
z
" style="fill:#8c8bc0;"/>
   </g>
   <g id="patch_42">
    <path clip-path="url(#p99872f6e5c)" d="M 436.228916 148.067044 
L 451.508215 148.067044 
L 451.508215 119.703819 
L 436.228916 119.703819 
z
" style="fill:#8c8bc0;"/>
   </g>
   <g id="patch_43">
    <path clip-path="url(#p99872f6e5c)" d="M 457.619934 143.795474 
L 472.899233 143.795474 
L 472.899233 115.005092 
L 457.619934 115.005092 
z
" style="fill:#8c8bc0;"/>
   </g>
   <g id="patch_44">
    <path clip-path="url(#p99872f6e5c)" d="M 479.010953 143.368317 
L 494.290252 143.368317 
L 494.290252 111.502405 
L 479.010953 111.502405 
z
" style="fill:#8c8bc0;"/>
   </g>
   <g id="patch_45">
    <path clip-path="url(#p99872f6e5c)" d="M 500.401972 139.523904 
L 515.681271 139.523904 
L 515.681271 104.240736 
L 500.401972 104.240736 
z
" style="fill:#8c8bc0;"/>
   </g>
   <g id="patch_46">
    <path clip-path="url(#p99872f6e5c)" d="M 521.79299 134.654314 
L 537.072289 134.654314 
L 537.072289 94.330693 
L 521.79299 94.330693 
z
" style="fill:#8c8bc0;"/>
   </g>
   <g id="patch_47">
    <path clip-path="url(#p99872f6e5c)" d="M 543.184009 134.312588 
L 558.463308 134.312588 
L 558.463308 90.059123 
L 543.184009 90.059123 
z
" style="fill:#8c8bc0;"/>
   </g>
   <g id="patch_48">
    <path clip-path="url(#p99872f6e5c)" d="M 564.575027 140.036492 
L 579.854326 140.036492 
L 579.854326 87.154455 
L 564.575027 87.154455 
z
" style="fill:#8c8bc0;"/>
   </g>
   <g id="patch_49">
    <path clip-path="url(#p99872f6e5c)" d="M 585.966046 145.845827 
L 601.245345 145.845827 
L 601.245345 86.385573 
L 585.966046 86.385573 
z
" style="fill:#8c8bc0;"/>
   </g>
   <g id="patch_50">
    <path clip-path="url(#p99872f6e5c)" d="M 607.357065 150.88628 
L 622.636364 150.88628 
L 622.636364 85.360396 
L 607.357065 85.360396 
z
" style="fill:#8c8bc0;"/>
   </g>
   <g id="patch_51">
    <path clip-path="url(#p99872f6e5c)" d="M 115.363636 314.572843 
L 130.642935 314.572843 
L 130.642935 314.572843 
L 115.363636 314.572843 
z
" style="fill:#873a98;"/>
   </g>
   <g id="patch_52">
    <path clip-path="url(#p99872f6e5c)" d="M 136.754655 314.829137 
L 152.033954 314.829137 
L 152.033954 314.829137 
L 136.754655 314.829137 
z
" style="fill:#873a98;"/>
   </g>
   <g id="patch_53">
    <path clip-path="url(#p99872f6e5c)" d="M 158.145674 312.864215 
L 173.424973 312.864215 
L 173.424973 312.864215 
L 158.145674 312.864215 
z
" style="fill:#873a98;"/>
   </g>
   <g id="patch_54">
    <path clip-path="url(#p99872f6e5c)" d="M 179.536692 298.340877 
L 194.815991 298.340877 
L 194.815991 298.340877 
L 179.536692 298.340877 
z
" style="fill:#873a98;"/>
   </g>
   <g id="patch_55">
    <path clip-path="url(#p99872f6e5c)" d="M 200.927711 262.459689 
L 216.20701 262.459689 
L 216.20701 262.032532 
L 200.927711 262.032532 
z
" style="fill:#873a98;"/>
   </g>
   <g id="patch_56">
    <path clip-path="url(#p99872f6e5c)" d="M 222.318729 188.73239 
L 237.598028 188.73239 
L 237.598028 187.536351 
L 222.318729 187.536351 
z
" style="fill:#873a98;"/>
   </g>
   <g id="patch_57">
    <path clip-path="url(#p99872f6e5c)" d="M 243.709748 144.478925 
L 258.989047 144.478925 
L 258.989047 140.378218 
L 243.709748 140.378218 
z
" style="fill:#873a98;"/>
   </g>
   <g id="patch_58">
    <path clip-path="url(#p99872f6e5c)" d="M 265.100767 127.392645 
L 280.380066 127.392645 
L 280.380066 123.035644 
L 265.100767 123.035644 
z
" style="fill:#873a98;"/>
   </g>
   <g id="patch_59">
    <path clip-path="url(#p99872f6e5c)" d="M 286.491785 126.367468 
L 301.771084 126.367468 
L 301.771084 122.010467 
L 286.491785 122.010467 
z
" style="fill:#873a98;"/>
   </g>
   <g id="patch_60">
    <path clip-path="url(#p99872f6e5c)" d="M 307.882804 133.970863 
L 323.162103 133.970863 
L 323.162103 129.784724 
L 307.882804 129.784724 
z
" style="fill:#873a98;"/>
   </g>
   <g id="patch_61">
    <path clip-path="url(#p99872f6e5c)" d="M 329.273823 125.171429 
L 344.553122 125.171429 
L 344.553122 120.728996 
L 329.273823 120.728996 
z
" style="fill:#873a98;"/>
   </g>
   <g id="patch_62">
    <path clip-path="url(#p99872f6e5c)" d="M 350.664841 127.734371 
L 365.94414 127.734371 
L 365.94414 122.523055 
L 350.664841 122.523055 
z
" style="fill:#873a98;"/>
   </g>
   <g id="patch_63">
    <path clip-path="url(#p99872f6e5c)" d="M 372.05586 127.905233 
L 387.335159 127.905233 
L 387.335159 123.035644 
L 372.05586 123.035644 
z
" style="fill:#873a98;"/>
   </g>
   <g id="patch_64">
    <path clip-path="url(#p99872f6e5c)" d="M 393.446878 121.839604 
L 408.726177 121.839604 
L 408.726177 116.542857 
L 393.446878 116.542857 
z
" style="fill:#873a98;"/>
   </g>
   <g id="patch_65">
    <path clip-path="url(#p99872f6e5c)" d="M 414.837897 122.864781 
L 430.117196 122.864781 
L 430.117196 117.226308 
L 414.837897 117.226308 
z
" style="fill:#873a98;"/>
   </g>
   <g id="patch_66">
    <path clip-path="url(#p99872f6e5c)" d="M 436.228916 119.703819 
L 451.508215 119.703819 
L 451.508215 114.065347 
L 436.228916 114.065347 
z
" style="fill:#873a98;"/>
   </g>
   <g id="patch_67">
    <path clip-path="url(#p99872f6e5c)" d="M 457.619934 115.005092 
L 472.899233 115.005092 
L 472.899233 108.597737 
L 457.619934 108.597737 
z
" style="fill:#873a98;"/>
   </g>
   <g id="patch_68">
    <path clip-path="url(#p99872f6e5c)" d="M 479.010953 111.502405 
L 494.290252 111.502405 
L 494.290252 104.411598 
L 479.010953 104.411598 
z
" style="fill:#873a98;"/>
   </g>
   <g id="patch_69">
    <path clip-path="url(#p99872f6e5c)" d="M 500.401972 104.240736 
L 515.681271 104.240736 
L 515.681271 96.637341 
L 500.401972 96.637341 
z
" style="fill:#873a98;"/>
   </g>
   <g id="patch_70">
    <path clip-path="url(#p99872f6e5c)" d="M 521.79299 94.330693 
L 537.072289 94.330693 
L 537.072289 85.360396 
L 521.79299 85.360396 
z
" style="fill:#873a98;"/>
   </g>
   <g id="patch_71">
    <path clip-path="url(#p99872f6e5c)" d="M 543.184009 90.059123 
L 558.463308 90.059123 
L 558.463308 79.294767 
L 543.184009 79.294767 
z
" style="fill:#873a98;"/>
   </g>
   <g id="patch_72">
    <path clip-path="url(#p99872f6e5c)" d="M 564.575027 87.154455 
L 579.854326 87.154455 
L 579.854326 75.364922 
L 564.575027 75.364922 
z
" style="fill:#873a98;"/>
   </g>
   <g id="patch_73">
    <path clip-path="url(#p99872f6e5c)" d="M 585.966046 86.385573 
L 601.245345 86.385573 
L 601.245345 73.827157 
L 585.966046 73.827157 
z
" style="fill:#873a98;"/>
   </g>
   <g id="patch_74">
    <path clip-path="url(#p99872f6e5c)" d="M 607.357065 85.360396 
L 622.636364 85.360396 
L 622.636364 70.495332 
L 607.357065 70.495332 
z
" style="fill:#873a98;"/>
   </g>
   <g id="patch_75">
    <path clip-path="url(#p99872f6e5c)" d="M 115.363636 314.572843 
L 130.642935 314.572843 
L 130.642935 314.572843 
L 115.363636 314.572843 
z
" style="fill:#4d004b;"/>
   </g>
   <g id="patch_76">
    <path clip-path="url(#p99872f6e5c)" d="M 136.754655 314.829137 
L 152.033954 314.829137 
L 152.033954 314.829137 
L 136.754655 314.829137 
z
" style="fill:#4d004b;"/>
   </g>
   <g id="patch_77">
    <path clip-path="url(#p99872f6e5c)" d="M 158.145674 312.864215 
L 173.424973 312.864215 
L 173.424973 312.864215 
L 158.145674 312.864215 
z
" style="fill:#4d004b;"/>
   </g>
   <g id="patch_78">
    <path clip-path="url(#p99872f6e5c)" d="M 179.536692 298.340877 
L 194.815991 298.340877 
L 194.815991 298.340877 
L 179.536692 298.340877 
z
" style="fill:#4d004b;"/>
   </g>
   <g id="patch_79">
    <path clip-path="url(#p99872f6e5c)" d="M 200.927711 262.032532 
L 216.20701 262.032532 
L 216.20701 262.032532 
L 200.927711 262.032532 
z
" style="fill:#4d004b;"/>
   </g>
   <g id="patch_80">
    <path clip-path="url(#p99872f6e5c)" d="M 222.318729 187.536351 
L 237.598028 187.536351 
L 237.598028 185.742291 
L 222.318729 185.742291 
z
" style="fill:#4d004b;"/>
   </g>
   <g id="patch_81">
    <path clip-path="url(#p99872f6e5c)" d="M 243.709748 140.378218 
L 258.989047 140.378218 
L 258.989047 136.362942 
L 243.709748 136.362942 
z
" style="fill:#4d004b;"/>
   </g>
   <g id="patch_82">
    <path clip-path="url(#p99872f6e5c)" d="M 265.100767 123.035644 
L 280.380066 123.035644 
L 280.380066 116.628289 
L 265.100767 116.628289 
z
" style="fill:#4d004b;"/>
   </g>
   <g id="patch_83">
    <path clip-path="url(#p99872f6e5c)" d="M 286.491785 122.010467 
L 301.771084 122.010467 
L 301.771084 115.688543 
L 286.491785 115.688543 
z
" style="fill:#4d004b;"/>
   </g>
   <g id="patch_84">
    <path clip-path="url(#p99872f6e5c)" d="M 307.882804 129.784724 
L 323.162103 129.784724 
L 323.162103 123.035644 
L 307.882804 123.035644 
z
" style="fill:#4d004b;"/>
   </g>
   <g id="patch_85">
    <path clip-path="url(#p99872f6e5c)" d="M 329.273823 120.728996 
L 344.553122 120.728996 
L 344.553122 113.211033 
L 329.273823 113.211033 
z
" style="fill:#4d004b;"/>
   </g>
   <g id="patch_86">
    <path clip-path="url(#p99872f6e5c)" d="M 350.664841 122.523055 
L 365.94414 122.523055 
L 365.94414 114.919661 
L 350.664841 114.919661 
z
" style="fill:#4d004b;"/>
   </g>
   <g id="patch_87">
    <path clip-path="url(#p99872f6e5c)" d="M 372.05586 123.035644 
L 387.335159 123.035644 
L 387.335159 116.371994 
L 372.05586 116.371994 
z
" style="fill:#4d004b;"/>
   </g>
   <g id="patch_88">
    <path clip-path="url(#p99872f6e5c)" d="M 393.446878 116.542857 
L 408.726177 116.542857 
L 408.726177 110.050071 
L 393.446878 110.050071 
z
" style="fill:#4d004b;"/>
   </g>
   <g id="patch_89">
    <path clip-path="url(#p99872f6e5c)" d="M 414.837897 117.226308 
L 430.117196 117.226308 
L 430.117196 111.502405 
L 414.837897 111.502405 
z
" style="fill:#4d004b;"/>
   </g>
   <g id="patch_90">
    <path clip-path="url(#p99872f6e5c)" d="M 436.228916 114.065347 
L 451.508215 114.065347 
L 451.508215 108.512306 
L 436.228916 108.512306 
z
" style="fill:#4d004b;"/>
   </g>
   <g id="patch_91">
    <path clip-path="url(#p99872f6e5c)" d="M 457.619934 108.597737 
L 472.899233 108.597737 
L 472.899233 104.069873 
L 457.619934 104.069873 
z
" style="fill:#4d004b;"/>
   </g>
   <g id="patch_92">
    <path clip-path="url(#p99872f6e5c)" d="M 479.010953 104.411598 
L 494.290252 104.411598 
L 494.290252 99.62744 
L 479.010953 99.62744 
z
" style="fill:#4d004b;"/>
   </g>
   <g id="patch_93">
    <path clip-path="url(#p99872f6e5c)" d="M 500.401972 96.637341 
L 515.681271 96.637341 
L 515.681271 89.717397 
L 500.401972 89.717397 
z
" style="fill:#4d004b;"/>
   </g>
   <g id="patch_94">
    <path clip-path="url(#p99872f6e5c)" d="M 521.79299 85.360396 
L 537.072289 85.360396 
L 537.072289 76.048373 
L 521.79299 76.048373 
z
" style="fill:#4d004b;"/>
   </g>
   <g id="patch_95">
    <path clip-path="url(#p99872f6e5c)" d="M 543.184009 79.294767 
L 558.463308 79.294767 
L 558.463308 68.103253 
L 543.184009 68.103253 
z
" style="fill:#4d004b;"/>
   </g>
   <g id="patch_96">
    <path clip-path="url(#p99872f6e5c)" d="M 564.575027 75.364922 
L 579.854326 75.364922 
L 579.854326 61.097878 
L 564.575027 61.097878 
z
" style="fill:#4d004b;"/>
   </g>
   <g id="patch_97">
    <path clip-path="url(#p99872f6e5c)" d="M 585.966046 73.827157 
L 601.245345 73.827157 
L 601.245345 58.364074 
L 585.966046 58.364074 
z
" style="fill:#4d004b;"/>
   </g>
   <g id="patch_98">
    <path clip-path="url(#p99872f6e5c)" d="M 607.357065 70.495332 
L 622.636364 70.495332 
L 622.636364 56.142857 
L 607.357065 56.142857 
z
" style="fill:#4d004b;"/>
   </g>
   <g id="matplotlib.axis_1">
    <g id="xtick_1">
     <g id="line2d_1">
      <defs>
       <path d="M 0 0 
L 0 3.5 
" id="m2fc8a7cbec" style="stroke:#000000;stroke-width:0.8;"/>
      </defs>
      <g>
       <use style="stroke:#000000;stroke-width:0.8;" x="101.612267" xlink:href="#m2fc8a7cbec" y="315"/>
      </g>
     </g>
     <g id="text_1">
      <!-- 2020-02-06 -->
      <g transform="translate(74.258755 344.380958)rotate(-15)scale(0.1 -0.1)">
       <defs>
        <path d="M 19.1875 8.296875 
L 53.609375 8.296875 
L 53.609375 0 
L 7.328125 0 
L 7.328125 8.296875 
Q 12.9375 14.109375 22.625 23.890625 
Q 32.328125 33.6875 34.8125 36.53125 
Q 39.546875 41.84375 41.421875 45.53125 
Q 43.3125 49.21875 43.3125 52.78125 
Q 43.3125 58.59375 39.234375 62.25 
Q 35.15625 65.921875 28.609375 65.921875 
Q 23.96875 65.921875 18.8125 64.3125 
Q 13.671875 62.703125 7.8125 59.421875 
L 7.8125 69.390625 
Q 13.765625 71.78125 18.9375 73 
Q 24.125 74.21875 28.421875 74.21875 
Q 39.75 74.21875 46.484375 68.546875 
Q 53.21875 62.890625 53.21875 53.421875 
Q 53.21875 48.921875 51.53125 44.890625 
Q 49.859375 40.875 45.40625 35.40625 
Q 44.1875 33.984375 37.640625 27.21875 
Q 31.109375 20.453125 19.1875 8.296875 
z
" id="DejaVuSans-50"/>
        <path d="M 31.78125 66.40625 
Q 24.171875 66.40625 20.328125 58.90625 
Q 16.5 51.421875 16.5 36.375 
Q 16.5 21.390625 20.328125 13.890625 
Q 24.171875 6.390625 31.78125 6.390625 
Q 39.453125 6.390625 43.28125 13.890625 
Q 47.125 21.390625 47.125 36.375 
Q 47.125 51.421875 43.28125 58.90625 
Q 39.453125 66.40625 31.78125 66.40625 
z
M 31.78125 74.21875 
Q 44.046875 74.21875 50.515625 64.515625 
Q 56.984375 54.828125 56.984375 36.375 
Q 56.984375 17.96875 50.515625 8.265625 
Q 44.046875 -1.421875 31.78125 -1.421875 
Q 19.53125 -1.421875 13.0625 8.265625 
Q 6.59375 17.96875 6.59375 36.375 
Q 6.59375 54.828125 13.0625 64.515625 
Q 19.53125 74.21875 31.78125 74.21875 
z
" id="DejaVuSans-48"/>
        <path d="M 4.890625 31.390625 
L 31.203125 31.390625 
L 31.203125 23.390625 
L 4.890625 23.390625 
z
" id="DejaVuSans-45"/>
        <path d="M 33.015625 40.375 
Q 26.375 40.375 22.484375 35.828125 
Q 18.609375 31.296875 18.609375 23.390625 
Q 18.609375 15.53125 22.484375 10.953125 
Q 26.375 6.390625 33.015625 6.390625 
Q 39.65625 6.390625 43.53125 10.953125 
Q 47.40625 15.53125 47.40625 23.390625 
Q 47.40625 31.296875 43.53125 35.828125 
Q 39.65625 40.375 33.015625 40.375 
z
M 52.59375 71.296875 
L 52.59375 62.3125 
Q 48.875 64.0625 45.09375 64.984375 
Q 41.3125 65.921875 37.59375 65.921875 
Q 27.828125 65.921875 22.671875 59.328125 
Q 17.53125 52.734375 16.796875 39.40625 
Q 19.671875 43.65625 24.015625 45.921875 
Q 28.375 48.1875 33.59375 48.1875 
Q 44.578125 48.1875 50.953125 41.515625 
Q 57.328125 34.859375 57.328125 23.390625 
Q 57.328125 12.15625 50.6875 5.359375 
Q 44.046875 -1.421875 33.015625 -1.421875 
Q 20.359375 -1.421875 13.671875 8.265625 
Q 6.984375 17.96875 6.984375 36.375 
Q 6.984375 53.65625 15.1875 63.9375 
Q 23.390625 74.21875 37.203125 74.21875 
Q 40.921875 74.21875 44.703125 73.484375 
Q 48.484375 72.75 52.59375 71.296875 
z
" id="DejaVuSans-54"/>
       </defs>
       <use xlink:href="#DejaVuSans-50"/>
       <use x="63.623047" xlink:href="#DejaVuSans-48"/>
       <use x="127.246094" xlink:href="#DejaVuSans-50"/>
       <use x="190.869141" xlink:href="#DejaVuSans-48"/>
       <use x="254.492188" xlink:href="#DejaVuSans-45"/>
       <use x="290.576172" xlink:href="#DejaVuSans-48"/>
       <use x="354.199219" xlink:href="#DejaVuSans-50"/>
       <use x="417.822266" xlink:href="#DejaVuSans-45"/>
       <use x="453.90625" xlink:href="#DejaVuSans-48"/>
       <use x="517.529297" xlink:href="#DejaVuSans-54"/>
      </g>
     </g>
    </g>
    <g id="xtick_2">
     <g id="line2d_2">
      <g>
       <use style="stroke:#000000;stroke-width:0.8;" x="165.785323" xlink:href="#m2fc8a7cbec" y="315"/>
      </g>
     </g>
     <g id="text_2">
      <!-- 2020-02-27 -->
      <g transform="translate(138.43181 344.380958)rotate(-15)scale(0.1 -0.1)">
       <defs>
        <path d="M 8.203125 72.90625 
L 55.078125 72.90625 
L 55.078125 68.703125 
L 28.609375 0 
L 18.3125 0 
L 43.21875 64.59375 
L 8.203125 64.59375 
z
" id="DejaVuSans-55"/>
       </defs>
       <use xlink:href="#DejaVuSans-50"/>
       <use x="63.623047" xlink:href="#DejaVuSans-48"/>
       <use x="127.246094" xlink:href="#DejaVuSans-50"/>
       <use x="190.869141" xlink:href="#DejaVuSans-48"/>
       <use x="254.492188" xlink:href="#DejaVuSans-45"/>
       <use x="290.576172" xlink:href="#DejaVuSans-48"/>
       <use x="354.199219" xlink:href="#DejaVuSans-50"/>
       <use x="417.822266" xlink:href="#DejaVuSans-45"/>
       <use x="453.90625" xlink:href="#DejaVuSans-50"/>
       <use x="517.529297" xlink:href="#DejaVuSans-55"/>
      </g>
     </g>
    </g>
    <g id="xtick_3">
     <g id="line2d_3">
      <g>
       <use style="stroke:#000000;stroke-width:0.8;" x="229.958379" xlink:href="#m2fc8a7cbec" y="315"/>
      </g>
     </g>
     <g id="text_3">
      <!-- 2020-03-19 -->
      <g transform="translate(202.604866 344.380958)rotate(-15)scale(0.1 -0.1)">
       <defs>
        <path d="M 40.578125 39.3125 
Q 47.65625 37.796875 51.625 33 
Q 55.609375 28.21875 55.609375 21.1875 
Q 55.609375 10.40625 48.1875 4.484375 
Q 40.765625 -1.421875 27.09375 -1.421875 
Q 22.515625 -1.421875 17.65625 -0.515625 
Q 12.796875 0.390625 7.625 2.203125 
L 7.625 11.71875 
Q 11.71875 9.328125 16.59375 8.109375 
Q 21.484375 6.890625 26.8125 6.890625 
Q 36.078125 6.890625 40.9375 10.546875 
Q 45.796875 14.203125 45.796875 21.1875 
Q 45.796875 27.640625 41.28125 31.265625 
Q 36.765625 34.90625 28.71875 34.90625 
L 20.21875 34.90625 
L 20.21875 43.015625 
L 29.109375 43.015625 
Q 36.375 43.015625 40.234375 45.921875 
Q 44.09375 48.828125 44.09375 54.296875 
Q 44.09375 59.90625 40.109375 62.90625 
Q 36.140625 65.921875 28.71875 65.921875 
Q 24.65625 65.921875 20.015625 65.03125 
Q 15.375 64.15625 9.8125 62.3125 
L 9.8125 71.09375 
Q 15.4375 72.65625 20.34375 73.4375 
Q 25.25 74.21875 29.59375 74.21875 
Q 40.828125 74.21875 47.359375 69.109375 
Q 53.90625 64.015625 53.90625 55.328125 
Q 53.90625 49.265625 50.4375 45.09375 
Q 46.96875 40.921875 40.578125 39.3125 
z
" id="DejaVuSans-51"/>
        <path d="M 12.40625 8.296875 
L 28.515625 8.296875 
L 28.515625 63.921875 
L 10.984375 60.40625 
L 10.984375 69.390625 
L 28.421875 72.90625 
L 38.28125 72.90625 
L 38.28125 8.296875 
L 54.390625 8.296875 
L 54.390625 0 
L 12.40625 0 
z
" id="DejaVuSans-49"/>
        <path d="M 10.984375 1.515625 
L 10.984375 10.5 
Q 14.703125 8.734375 18.5 7.8125 
Q 22.3125 6.890625 25.984375 6.890625 
Q 35.75 6.890625 40.890625 13.453125 
Q 46.046875 20.015625 46.78125 33.40625 
Q 43.953125 29.203125 39.59375 26.953125 
Q 35.25 24.703125 29.984375 24.703125 
Q 19.046875 24.703125 12.671875 31.3125 
Q 6.296875 37.9375 6.296875 49.421875 
Q 6.296875 60.640625 12.9375 67.421875 
Q 19.578125 74.21875 30.609375 74.21875 
Q 43.265625 74.21875 49.921875 64.515625 
Q 56.59375 54.828125 56.59375 36.375 
Q 56.59375 19.140625 48.40625 8.859375 
Q 40.234375 -1.421875 26.421875 -1.421875 
Q 22.703125 -1.421875 18.890625 -0.6875 
Q 15.09375 0.046875 10.984375 1.515625 
z
M 30.609375 32.421875 
Q 37.25 32.421875 41.125 36.953125 
Q 45.015625 41.5 45.015625 49.421875 
Q 45.015625 57.28125 41.125 61.84375 
Q 37.25 66.40625 30.609375 66.40625 
Q 23.96875 66.40625 20.09375 61.84375 
Q 16.21875 57.28125 16.21875 49.421875 
Q 16.21875 41.5 20.09375 36.953125 
Q 23.96875 32.421875 30.609375 32.421875 
z
" id="DejaVuSans-57"/>
       </defs>
       <use xlink:href="#DejaVuSans-50"/>
       <use x="63.623047" xlink:href="#DejaVuSans-48"/>
       <use x="127.246094" xlink:href="#DejaVuSans-50"/>
       <use x="190.869141" xlink:href="#DejaVuSans-48"/>
       <use x="254.492188" xlink:href="#DejaVuSans-45"/>
       <use x="290.576172" xlink:href="#DejaVuSans-48"/>
       <use x="354.199219" xlink:href="#DejaVuSans-51"/>
       <use x="417.822266" xlink:href="#DejaVuSans-45"/>
       <use x="453.90625" xlink:href="#DejaVuSans-49"/>
       <use x="517.529297" xlink:href="#DejaVuSans-57"/>
      </g>
     </g>
    </g>
    <g id="xtick_4">
     <g id="line2d_4">
      <g>
       <use style="stroke:#000000;stroke-width:0.8;" x="294.131435" xlink:href="#m2fc8a7cbec" y="315"/>
      </g>
     </g>
     <g id="text_4">
      <!-- 2020-04-09 -->
      <g transform="translate(266.777922 344.380958)rotate(-15)scale(0.1 -0.1)">
       <defs>
        <path d="M 37.796875 64.3125 
L 12.890625 25.390625 
L 37.796875 25.390625 
z
M 35.203125 72.90625 
L 47.609375 72.90625 
L 47.609375 25.390625 
L 58.015625 25.390625 
L 58.015625 17.1875 
L 47.609375 17.1875 
L 47.609375 0 
L 37.796875 0 
L 37.796875 17.1875 
L 4.890625 17.1875 
L 4.890625 26.703125 
z
" id="DejaVuSans-52"/>
       </defs>
       <use xlink:href="#DejaVuSans-50"/>
       <use x="63.623047" xlink:href="#DejaVuSans-48"/>
       <use x="127.246094" xlink:href="#DejaVuSans-50"/>
       <use x="190.869141" xlink:href="#DejaVuSans-48"/>
       <use x="254.492188" xlink:href="#DejaVuSans-45"/>
       <use x="290.576172" xlink:href="#DejaVuSans-48"/>
       <use x="354.199219" xlink:href="#DejaVuSans-52"/>
       <use x="417.822266" xlink:href="#DejaVuSans-45"/>
       <use x="453.90625" xlink:href="#DejaVuSans-48"/>
       <use x="517.529297" xlink:href="#DejaVuSans-57"/>
      </g>
     </g>
    </g>
    <g id="xtick_5">
     <g id="line2d_5">
      <g>
       <use style="stroke:#000000;stroke-width:0.8;" x="358.304491" xlink:href="#m2fc8a7cbec" y="315"/>
      </g>
     </g>
     <g id="text_5">
      <!-- 2020-04-30 -->
      <g transform="translate(330.950978 344.380958)rotate(-15)scale(0.1 -0.1)">
       <use xlink:href="#DejaVuSans-50"/>
       <use x="63.623047" xlink:href="#DejaVuSans-48"/>
       <use x="127.246094" xlink:href="#DejaVuSans-50"/>
       <use x="190.869141" xlink:href="#DejaVuSans-48"/>
       <use x="254.492188" xlink:href="#DejaVuSans-45"/>
       <use x="290.576172" xlink:href="#DejaVuSans-48"/>
       <use x="354.199219" xlink:href="#DejaVuSans-52"/>
       <use x="417.822266" xlink:href="#DejaVuSans-45"/>
       <use x="453.90625" xlink:href="#DejaVuSans-51"/>
       <use x="517.529297" xlink:href="#DejaVuSans-48"/>
      </g>
     </g>
    </g>
    <g id="xtick_6">
     <g id="line2d_6">
      <g>
       <use style="stroke:#000000;stroke-width:0.8;" x="422.477547" xlink:href="#m2fc8a7cbec" y="315"/>
      </g>
     </g>
     <g id="text_6">
      <!-- 2020-05-21 -->
      <g transform="translate(395.124034 344.380958)rotate(-15)scale(0.1 -0.1)">
       <defs>
        <path d="M 10.796875 72.90625 
L 49.515625 72.90625 
L 49.515625 64.59375 
L 19.828125 64.59375 
L 19.828125 46.734375 
Q 21.96875 47.46875 24.109375 47.828125 
Q 26.265625 48.1875 28.421875 48.1875 
Q 40.625 48.1875 47.75 41.5 
Q 54.890625 34.8125 54.890625 23.390625 
Q 54.890625 11.625 47.5625 5.09375 
Q 40.234375 -1.421875 26.90625 -1.421875 
Q 22.3125 -1.421875 17.546875 -0.640625 
Q 12.796875 0.140625 7.71875 1.703125 
L 7.71875 11.625 
Q 12.109375 9.234375 16.796875 8.0625 
Q 21.484375 6.890625 26.703125 6.890625 
Q 35.15625 6.890625 40.078125 11.328125 
Q 45.015625 15.765625 45.015625 23.390625 
Q 45.015625 31 40.078125 35.4375 
Q 35.15625 39.890625 26.703125 39.890625 
Q 22.75 39.890625 18.8125 39.015625 
Q 14.890625 38.140625 10.796875 36.28125 
z
" id="DejaVuSans-53"/>
       </defs>
       <use xlink:href="#DejaVuSans-50"/>
       <use x="63.623047" xlink:href="#DejaVuSans-48"/>
       <use x="127.246094" xlink:href="#DejaVuSans-50"/>
       <use x="190.869141" xlink:href="#DejaVuSans-48"/>
       <use x="254.492188" xlink:href="#DejaVuSans-45"/>
       <use x="290.576172" xlink:href="#DejaVuSans-48"/>
       <use x="354.199219" xlink:href="#DejaVuSans-53"/>
       <use x="417.822266" xlink:href="#DejaVuSans-45"/>
       <use x="453.90625" xlink:href="#DejaVuSans-50"/>
       <use x="517.529297" xlink:href="#DejaVuSans-49"/>
      </g>
     </g>
    </g>
    <g id="xtick_7">
     <g id="line2d_7">
      <g>
       <use style="stroke:#000000;stroke-width:0.8;" x="486.650602" xlink:href="#m2fc8a7cbec" y="315"/>
      </g>
     </g>
     <g id="text_7">
      <!-- 2020-06-11 -->
      <g transform="translate(459.29709 344.380958)rotate(-15)scale(0.1 -0.1)">
       <use xlink:href="#DejaVuSans-50"/>
       <use x="63.623047" xlink:href="#DejaVuSans-48"/>
       <use x="127.246094" xlink:href="#DejaVuSans-50"/>
       <use x="190.869141" xlink:href="#DejaVuSans-48"/>
       <use x="254.492188" xlink:href="#DejaVuSans-45"/>
       <use x="290.576172" xlink:href="#DejaVuSans-48"/>
       <use x="354.199219" xlink:href="#DejaVuSans-54"/>
       <use x="417.822266" xlink:href="#DejaVuSans-45"/>
       <use x="453.90625" xlink:href="#DejaVuSans-49"/>
       <use x="517.529297" xlink:href="#DejaVuSans-49"/>
      </g>
     </g>
    </g>
    <g id="xtick_8">
     <g id="line2d_8">
      <g>
       <use style="stroke:#000000;stroke-width:0.8;" x="550.823658" xlink:href="#m2fc8a7cbec" y="315"/>
      </g>
     </g>
     <g id="text_8">
      <!-- 2020-07-02 -->
      <g transform="translate(523.470146 344.380958)rotate(-15)scale(0.1 -0.1)">
       <use xlink:href="#DejaVuSans-50"/>
       <use x="63.623047" xlink:href="#DejaVuSans-48"/>
       <use x="127.246094" xlink:href="#DejaVuSans-50"/>
       <use x="190.869141" xlink:href="#DejaVuSans-48"/>
       <use x="254.492188" xlink:href="#DejaVuSans-45"/>
       <use x="290.576172" xlink:href="#DejaVuSans-48"/>
       <use x="354.199219" xlink:href="#DejaVuSans-55"/>
       <use x="417.822266" xlink:href="#DejaVuSans-45"/>
       <use x="453.90625" xlink:href="#DejaVuSans-48"/>
       <use x="517.529297" xlink:href="#DejaVuSans-50"/>
      </g>
     </g>
    </g>
    <g id="xtick_9">
     <g id="line2d_9">
      <g>
       <use style="stroke:#000000;stroke-width:0.8;" x="614.996714" xlink:href="#m2fc8a7cbec" y="315"/>
      </g>
     </g>
     <g id="text_9">
      <!-- 2020-07-23 -->
      <g transform="translate(587.643201 344.380958)rotate(-15)scale(0.1 -0.1)">
       <use xlink:href="#DejaVuSans-50"/>
       <use x="63.623047" xlink:href="#DejaVuSans-48"/>
       <use x="127.246094" xlink:href="#DejaVuSans-50"/>
       <use x="190.869141" xlink:href="#DejaVuSans-48"/>
       <use x="254.492188" xlink:href="#DejaVuSans-45"/>
       <use x="290.576172" xlink:href="#DejaVuSans-48"/>
       <use x="354.199219" xlink:href="#DejaVuSans-55"/>
       <use x="417.822266" xlink:href="#DejaVuSans-45"/>
       <use x="453.90625" xlink:href="#DejaVuSans-50"/>
       <use x="517.529297" xlink:href="#DejaVuSans-51"/>
      </g>
     </g>
    </g>
    <g id="text_10">
     <!-- Date -->
     <g transform="translate(357.049219 357.988219)scale(0.1 -0.1)">
      <defs>
       <path d="M 19.671875 64.796875 
L 19.671875 8.109375 
L 31.59375 8.109375 
Q 46.6875 8.109375 53.6875 14.9375 
Q 60.6875 21.78125 60.6875 36.53125 
Q 60.6875 51.171875 53.6875 57.984375 
Q 46.6875 64.796875 31.59375 64.796875 
z
M 9.8125 72.90625 
L 30.078125 72.90625 
Q 51.265625 72.90625 61.171875 64.09375 
Q 71.09375 55.28125 71.09375 36.53125 
Q 71.09375 17.671875 61.125 8.828125 
Q 51.171875 0 30.078125 0 
L 9.8125 0 
z
" id="DejaVuSans-68"/>
       <path d="M 34.28125 27.484375 
Q 23.390625 27.484375 19.1875 25 
Q 14.984375 22.515625 14.984375 16.5 
Q 14.984375 11.71875 18.140625 8.90625 
Q 21.296875 6.109375 26.703125 6.109375 
Q 34.1875 6.109375 38.703125 11.40625 
Q 43.21875 16.703125 43.21875 25.484375 
L 43.21875 27.484375 
z
M 52.203125 31.203125 
L 52.203125 0 
L 43.21875 0 
L 43.21875 8.296875 
Q 40.140625 3.328125 35.546875 0.953125 
Q 30.953125 -1.421875 24.3125 -1.421875 
Q 15.921875 -1.421875 10.953125 3.296875 
Q 6 8.015625 6 15.921875 
Q 6 25.140625 12.171875 29.828125 
Q 18.359375 34.515625 30.609375 34.515625 
L 43.21875 34.515625 
L 43.21875 35.40625 
Q 43.21875 41.609375 39.140625 45 
Q 35.0625 48.390625 27.6875 48.390625 
Q 23 48.390625 18.546875 47.265625 
Q 14.109375 46.140625 10.015625 43.890625 
L 10.015625 52.203125 
Q 14.9375 54.109375 19.578125 55.046875 
Q 24.21875 56 28.609375 56 
Q 40.484375 56 46.34375 49.84375 
Q 52.203125 43.703125 52.203125 31.203125 
z
" id="DejaVuSans-97"/>
       <path d="M 18.3125 70.21875 
L 18.3125 54.6875 
L 36.8125 54.6875 
L 36.8125 47.703125 
L 18.3125 47.703125 
L 18.3125 18.015625 
Q 18.3125 11.328125 20.140625 9.421875 
Q 21.96875 7.515625 27.59375 7.515625 
L 36.8125 7.515625 
L 36.8125 0 
L 27.59375 0 
Q 17.1875 0 13.234375 3.875 
Q 9.28125 7.765625 9.28125 18.015625 
L 9.28125 47.703125 
L 2.6875 47.703125 
L 2.6875 54.6875 
L 9.28125 54.6875 
L 9.28125 70.21875 
z
" id="DejaVuSans-116"/>
       <path d="M 56.203125 29.59375 
L 56.203125 25.203125 
L 14.890625 25.203125 
Q 15.484375 15.921875 20.484375 11.0625 
Q 25.484375 6.203125 34.421875 6.203125 
Q 39.59375 6.203125 44.453125 7.46875 
Q 49.3125 8.734375 54.109375 11.28125 
L 54.109375 2.78125 
Q 49.265625 0.734375 44.1875 -0.34375 
Q 39.109375 -1.421875 33.890625 -1.421875 
Q 20.796875 -1.421875 13.15625 6.1875 
Q 5.515625 13.8125 5.515625 26.8125 
Q 5.515625 40.234375 12.765625 48.109375 
Q 20.015625 56 32.328125 56 
Q 43.359375 56 49.78125 48.890625 
Q 56.203125 41.796875 56.203125 29.59375 
z
M 47.21875 32.234375 
Q 47.125 39.59375 43.09375 43.984375 
Q 39.0625 48.390625 32.421875 48.390625 
Q 24.90625 48.390625 20.390625 44.140625 
Q 15.875 39.890625 15.1875 32.171875 
z
" id="DejaVuSans-101"/>
      </defs>
      <use xlink:href="#DejaVuSans-68"/>
      <use x="77.001953" xlink:href="#DejaVuSans-97"/>
      <use x="138.28125" xlink:href="#DejaVuSans-116"/>
      <use x="177.490234" xlink:href="#DejaVuSans-101"/>
     </g>
    </g>
   </g>
   <g id="matplotlib.axis_2">
    <g id="ytick_1">
     <g id="line2d_10">
      <defs>
       <path d="M 0 0 
L -3.5 0 
" id="m6e0a215968" style="stroke:#000000;stroke-width:0.8;"/>
      </defs>
      <g>
       <use style="stroke:#000000;stroke-width:0.8;" x="90" xlink:href="#m6e0a215968" y="315"/>
      </g>
     </g>
     <g id="text_11">
      <!-- 0 -->
      <g transform="translate(76.6375 318.799219)scale(0.1 -0.1)">
       <use xlink:href="#DejaVuSans-48"/>
      </g>
     </g>
    </g>
    <g id="ytick_2">
     <g id="line2d_11">
      <g>
       <use style="stroke:#000000;stroke-width:0.8;" x="90" xlink:href="#m6e0a215968" y="272.2843"/>
      </g>
     </g>
     <g id="text_12">
      <!-- 500 -->
      <g transform="translate(63.9125 276.083519)scale(0.1 -0.1)">
       <use xlink:href="#DejaVuSans-53"/>
       <use x="63.623047" xlink:href="#DejaVuSans-48"/>
       <use x="127.246094" xlink:href="#DejaVuSans-48"/>
      </g>
     </g>
    </g>
    <g id="ytick_3">
     <g id="line2d_12">
      <g>
       <use style="stroke:#000000;stroke-width:0.8;" x="90" xlink:href="#m6e0a215968" y="229.5686"/>
      </g>
     </g>
     <g id="text_13">
      <!-- 1000 -->
      <g transform="translate(57.55 233.367818)scale(0.1 -0.1)">
       <use xlink:href="#DejaVuSans-49"/>
       <use x="63.623047" xlink:href="#DejaVuSans-48"/>
       <use x="127.246094" xlink:href="#DejaVuSans-48"/>
       <use x="190.869141" xlink:href="#DejaVuSans-48"/>
      </g>
     </g>
    </g>
    <g id="ytick_4">
     <g id="line2d_13">
      <g>
       <use style="stroke:#000000;stroke-width:0.8;" x="90" xlink:href="#m6e0a215968" y="186.8529"/>
      </g>
     </g>
     <g id="text_14">
      <!-- 1500 -->
      <g transform="translate(57.55 190.652118)scale(0.1 -0.1)">
       <use xlink:href="#DejaVuSans-49"/>
       <use x="63.623047" xlink:href="#DejaVuSans-53"/>
       <use x="127.246094" xlink:href="#DejaVuSans-48"/>
       <use x="190.869141" xlink:href="#DejaVuSans-48"/>
      </g>
     </g>
    </g>
    <g id="ytick_5">
     <g id="line2d_14">
      <g>
       <use style="stroke:#000000;stroke-width:0.8;" x="90" xlink:href="#m6e0a215968" y="144.137199"/>
      </g>
     </g>
     <g id="text_15">
      <!-- 2000 -->
      <g transform="translate(57.55 147.936418)scale(0.1 -0.1)">
       <use xlink:href="#DejaVuSans-50"/>
       <use x="63.623047" xlink:href="#DejaVuSans-48"/>
       <use x="127.246094" xlink:href="#DejaVuSans-48"/>
       <use x="190.869141" xlink:href="#DejaVuSans-48"/>
      </g>
     </g>
    </g>
    <g id="ytick_6">
     <g id="line2d_15">
      <g>
       <use style="stroke:#000000;stroke-width:0.8;" x="90" xlink:href="#m6e0a215968" y="101.421499"/>
      </g>
     </g>
     <g id="text_16">
      <!-- 2500 -->
      <g transform="translate(57.55 105.220718)scale(0.1 -0.1)">
       <use xlink:href="#DejaVuSans-50"/>
       <use x="63.623047" xlink:href="#DejaVuSans-53"/>
       <use x="127.246094" xlink:href="#DejaVuSans-48"/>
       <use x="190.869141" xlink:href="#DejaVuSans-48"/>
      </g>
     </g>
    </g>
    <g id="ytick_7">
     <g id="line2d_16">
      <g>
       <use style="stroke:#000000;stroke-width:0.8;" x="90" xlink:href="#m6e0a215968" y="58.705799"/>
      </g>
     </g>
     <g id="text_17">
      <!-- 3000 -->
      <g transform="translate(57.55 62.505018)scale(0.1 -0.1)">
       <use xlink:href="#DejaVuSans-51"/>
       <use x="63.623047" xlink:href="#DejaVuSans-48"/>
       <use x="127.246094" xlink:href="#DejaVuSans-48"/>
       <use x="190.869141" xlink:href="#DejaVuSans-48"/>
      </g>
     </g>
    </g>
    <g id="text_18">
     <!-- Frequency -->
     <g transform="translate(51.470312 204.929688)rotate(-90)scale(0.1 -0.1)">
      <defs>
       <path d="M 9.8125 72.90625 
L 51.703125 72.90625 
L 51.703125 64.59375 
L 19.671875 64.59375 
L 19.671875 43.109375 
L 48.578125 43.109375 
L 48.578125 34.8125 
L 19.671875 34.8125 
L 19.671875 0 
L 9.8125 0 
z
" id="DejaVuSans-70"/>
       <path d="M 41.109375 46.296875 
Q 39.59375 47.171875 37.8125 47.578125 
Q 36.03125 48 33.890625 48 
Q 26.265625 48 22.1875 43.046875 
Q 18.109375 38.09375 18.109375 28.8125 
L 18.109375 0 
L 9.078125 0 
L 9.078125 54.6875 
L 18.109375 54.6875 
L 18.109375 46.1875 
Q 20.953125 51.171875 25.484375 53.578125 
Q 30.03125 56 36.53125 56 
Q 37.453125 56 38.578125 55.875 
Q 39.703125 55.765625 41.0625 55.515625 
z
" id="DejaVuSans-114"/>
       <path d="M 14.796875 27.296875 
Q 14.796875 17.390625 18.875 11.75 
Q 22.953125 6.109375 30.078125 6.109375 
Q 37.203125 6.109375 41.296875 11.75 
Q 45.40625 17.390625 45.40625 27.296875 
Q 45.40625 37.203125 41.296875 42.84375 
Q 37.203125 48.484375 30.078125 48.484375 
Q 22.953125 48.484375 18.875 42.84375 
Q 14.796875 37.203125 14.796875 27.296875 
z
M 45.40625 8.203125 
Q 42.578125 3.328125 38.25 0.953125 
Q 33.9375 -1.421875 27.875 -1.421875 
Q 17.96875 -1.421875 11.734375 6.484375 
Q 5.515625 14.40625 5.515625 27.296875 
Q 5.515625 40.1875 11.734375 48.09375 
Q 17.96875 56 27.875 56 
Q 33.9375 56 38.25 53.625 
Q 42.578125 51.265625 45.40625 46.390625 
L 45.40625 54.6875 
L 54.390625 54.6875 
L 54.390625 -20.796875 
L 45.40625 -20.796875 
z
" id="DejaVuSans-113"/>
       <path d="M 8.5 21.578125 
L 8.5 54.6875 
L 17.484375 54.6875 
L 17.484375 21.921875 
Q 17.484375 14.15625 20.5 10.265625 
Q 23.53125 6.390625 29.59375 6.390625 
Q 36.859375 6.390625 41.078125 11.03125 
Q 45.3125 15.671875 45.3125 23.6875 
L 45.3125 54.6875 
L 54.296875 54.6875 
L 54.296875 0 
L 45.3125 0 
L 45.3125 8.40625 
Q 42.046875 3.421875 37.71875 1 
Q 33.40625 -1.421875 27.6875 -1.421875 
Q 18.265625 -1.421875 13.375 4.4375 
Q 8.5 10.296875 8.5 21.578125 
z
M 31.109375 56 
z
" id="DejaVuSans-117"/>
       <path d="M 54.890625 33.015625 
L 54.890625 0 
L 45.90625 0 
L 45.90625 32.71875 
Q 45.90625 40.484375 42.875 44.328125 
Q 39.84375 48.1875 33.796875 48.1875 
Q 26.515625 48.1875 22.3125 43.546875 
Q 18.109375 38.921875 18.109375 30.90625 
L 18.109375 0 
L 9.078125 0 
L 9.078125 54.6875 
L 18.109375 54.6875 
L 18.109375 46.1875 
Q 21.34375 51.125 25.703125 53.5625 
Q 30.078125 56 35.796875 56 
Q 45.21875 56 50.046875 50.171875 
Q 54.890625 44.34375 54.890625 33.015625 
z
" id="DejaVuSans-110"/>
       <path d="M 48.78125 52.59375 
L 48.78125 44.1875 
Q 44.96875 46.296875 41.140625 47.34375 
Q 37.3125 48.390625 33.40625 48.390625 
Q 24.65625 48.390625 19.8125 42.84375 
Q 14.984375 37.3125 14.984375 27.296875 
Q 14.984375 17.28125 19.8125 11.734375 
Q 24.65625 6.203125 33.40625 6.203125 
Q 37.3125 6.203125 41.140625 7.25 
Q 44.96875 8.296875 48.78125 10.40625 
L 48.78125 2.09375 
Q 45.015625 0.34375 40.984375 -0.53125 
Q 36.96875 -1.421875 32.421875 -1.421875 
Q 20.0625 -1.421875 12.78125 6.34375 
Q 5.515625 14.109375 5.515625 27.296875 
Q 5.515625 40.671875 12.859375 48.328125 
Q 20.21875 56 33.015625 56 
Q 37.15625 56 41.109375 55.140625 
Q 45.0625 54.296875 48.78125 52.59375 
z
" id="DejaVuSans-99"/>
       <path d="M 32.171875 -5.078125 
Q 28.375 -14.84375 24.75 -17.8125 
Q 21.140625 -20.796875 15.09375 -20.796875 
L 7.90625 -20.796875 
L 7.90625 -13.28125 
L 13.1875 -13.28125 
Q 16.890625 -13.28125 18.9375 -11.515625 
Q 21 -9.765625 23.484375 -3.21875 
L 25.09375 0.875 
L 2.984375 54.6875 
L 12.5 54.6875 
L 29.59375 11.921875 
L 46.6875 54.6875 
L 56.203125 54.6875 
z
" id="DejaVuSans-121"/>
      </defs>
      <use xlink:href="#DejaVuSans-70"/>
      <use x="50.269531" xlink:href="#DejaVuSans-114"/>
      <use x="89.132812" xlink:href="#DejaVuSans-101"/>
      <use x="150.65625" xlink:href="#DejaVuSans-113"/>
      <use x="214.132812" xlink:href="#DejaVuSans-117"/>
      <use x="277.511719" xlink:href="#DejaVuSans-101"/>
      <use x="339.035156" xlink:href="#DejaVuSans-110"/>
      <use x="402.414062" xlink:href="#DejaVuSans-99"/>
      <use x="457.394531" xlink:href="#DejaVuSans-121"/>
     </g>
    </g>
   </g>
   <g id="patch_99">
    <path d="M 90 315 
L 90 43.2 
" style="fill:none;stroke:#000000;stroke-linecap:square;stroke-linejoin:miter;stroke-width:0.8;"/>
   </g>
   <g id="patch_100">
    <path d="M 90 315 
L 648 315 
" style="fill:none;stroke:#000000;stroke-linecap:square;stroke-linejoin:miter;stroke-width:0.8;"/>
   </g>
   <g id="legend_1">
    <g id="patch_101">
     <path d="M 99 59.798437 
L 119 59.798437 
L 119 52.798437 
L 99 52.798437 
z
" style="fill:#b2cae1;"/>
    </g>
    <g id="text_19">
     <!-- 0&lt;Cases&lt;=100 -->
     <g transform="translate(127 59.798437)scale(0.1 -0.1)">
      <defs>
       <path d="M 73.1875 49.21875 
L 22.796875 31.296875 
L 73.1875 13.484375 
L 73.1875 4.59375 
L 10.59375 27.296875 
L 10.59375 35.40625 
L 73.1875 58.109375 
z
" id="DejaVuSans-60"/>
       <path d="M 64.40625 67.28125 
L 64.40625 56.890625 
Q 59.421875 61.53125 53.78125 63.8125 
Q 48.140625 66.109375 41.796875 66.109375 
Q 29.296875 66.109375 22.65625 58.46875 
Q 16.015625 50.828125 16.015625 36.375 
Q 16.015625 21.96875 22.65625 14.328125 
Q 29.296875 6.6875 41.796875 6.6875 
Q 48.140625 6.6875 53.78125 8.984375 
Q 59.421875 11.28125 64.40625 15.921875 
L 64.40625 5.609375 
Q 59.234375 2.09375 53.4375 0.328125 
Q 47.65625 -1.421875 41.21875 -1.421875 
Q 24.65625 -1.421875 15.125 8.703125 
Q 5.609375 18.84375 5.609375 36.375 
Q 5.609375 53.953125 15.125 64.078125 
Q 24.65625 74.21875 41.21875 74.21875 
Q 47.75 74.21875 53.53125 72.484375 
Q 59.328125 70.75 64.40625 67.28125 
z
" id="DejaVuSans-67"/>
       <path d="M 44.28125 53.078125 
L 44.28125 44.578125 
Q 40.484375 46.53125 36.375 47.5 
Q 32.28125 48.484375 27.875 48.484375 
Q 21.1875 48.484375 17.84375 46.4375 
Q 14.5 44.390625 14.5 40.28125 
Q 14.5 37.15625 16.890625 35.375 
Q 19.28125 33.59375 26.515625 31.984375 
L 29.59375 31.296875 
Q 39.15625 29.25 43.1875 25.515625 
Q 47.21875 21.78125 47.21875 15.09375 
Q 47.21875 7.46875 41.1875 3.015625 
Q 35.15625 -1.421875 24.609375 -1.421875 
Q 20.21875 -1.421875 15.453125 -0.5625 
Q 10.6875 0.296875 5.421875 2 
L 5.421875 11.28125 
Q 10.40625 8.6875 15.234375 7.390625 
Q 20.0625 6.109375 24.8125 6.109375 
Q 31.15625 6.109375 34.5625 8.28125 
Q 37.984375 10.453125 37.984375 14.40625 
Q 37.984375 18.0625 35.515625 20.015625 
Q 33.0625 21.96875 24.703125 23.78125 
L 21.578125 24.515625 
Q 13.234375 26.265625 9.515625 29.90625 
Q 5.8125 33.546875 5.8125 39.890625 
Q 5.8125 47.609375 11.28125 51.796875 
Q 16.75 56 26.8125 56 
Q 31.78125 56 36.171875 55.265625 
Q 40.578125 54.546875 44.28125 53.078125 
z
" id="DejaVuSans-115"/>
       <path d="M 10.59375 45.40625 
L 73.1875 45.40625 
L 73.1875 37.203125 
L 10.59375 37.203125 
z
M 10.59375 25.484375 
L 73.1875 25.484375 
L 73.1875 17.1875 
L 10.59375 17.1875 
z
" id="DejaVuSans-61"/>
      </defs>
      <use xlink:href="#DejaVuSans-48"/>
      <use x="63.623047" xlink:href="#DejaVuSans-60"/>
      <use x="147.412109" xlink:href="#DejaVuSans-67"/>
      <use x="217.236328" xlink:href="#DejaVuSans-97"/>
      <use x="278.515625" xlink:href="#DejaVuSans-115"/>
      <use x="330.615234" xlink:href="#DejaVuSans-101"/>
      <use x="392.138672" xlink:href="#DejaVuSans-115"/>
      <use x="444.238281" xlink:href="#DejaVuSans-60"/>
      <use x="528.027344" xlink:href="#DejaVuSans-61"/>
      <use x="611.816406" xlink:href="#DejaVuSans-49"/>
      <use x="675.439453" xlink:href="#DejaVuSans-48"/>
      <use x="739.0625" xlink:href="#DejaVuSans-48"/>
     </g>
    </g>
    <g id="patch_102">
     <path d="M 99 74.476562 
L 119 74.476562 
L 119 67.476562 
L 99 67.476562 
z
" style="fill:#8c8bc0;"/>
    </g>
    <g id="text_20">
     <!-- 100&lt;Cases&lt;=500 -->
     <g transform="translate(127 74.476562)scale(0.1 -0.1)">
      <use xlink:href="#DejaVuSans-49"/>
      <use x="63.623047" xlink:href="#DejaVuSans-48"/>
      <use x="127.246094" xlink:href="#DejaVuSans-48"/>
      <use x="190.869141" xlink:href="#DejaVuSans-60"/>
      <use x="274.658203" xlink:href="#DejaVuSans-67"/>
      <use x="344.482422" xlink:href="#DejaVuSans-97"/>
      <use x="405.761719" xlink:href="#DejaVuSans-115"/>
      <use x="457.861328" xlink:href="#DejaVuSans-101"/>
      <use x="519.384766" xlink:href="#DejaVuSans-115"/>
      <use x="571.484375" xlink:href="#DejaVuSans-60"/>
      <use x="655.273438" xlink:href="#DejaVuSans-61"/>
      <use x="739.0625" xlink:href="#DejaVuSans-53"/>
      <use x="802.685547" xlink:href="#DejaVuSans-48"/>
      <use x="866.308594" xlink:href="#DejaVuSans-48"/>
     </g>
    </g>
    <g id="patch_103">
     <path d="M 99 89.154687 
L 119 89.154687 
L 119 82.154687 
L 99 82.154687 
z
" style="fill:#873a98;"/>
    </g>
    <g id="text_21">
     <!-- 500&lt;Cases&lt;=1000 -->
     <g transform="translate(127 89.154687)scale(0.1 -0.1)">
      <use xlink:href="#DejaVuSans-53"/>
      <use x="63.623047" xlink:href="#DejaVuSans-48"/>
      <use x="127.246094" xlink:href="#DejaVuSans-48"/>
      <use x="190.869141" xlink:href="#DejaVuSans-60"/>
      <use x="274.658203" xlink:href="#DejaVuSans-67"/>
      <use x="344.482422" xlink:href="#DejaVuSans-97"/>
      <use x="405.761719" xlink:href="#DejaVuSans-115"/>
      <use x="457.861328" xlink:href="#DejaVuSans-101"/>
      <use x="519.384766" xlink:href="#DejaVuSans-115"/>
      <use x="571.484375" xlink:href="#DejaVuSans-60"/>
      <use x="655.273438" xlink:href="#DejaVuSans-61"/>
      <use x="739.0625" xlink:href="#DejaVuSans-49"/>
      <use x="802.685547" xlink:href="#DejaVuSans-48"/>
      <use x="866.308594" xlink:href="#DejaVuSans-48"/>
      <use x="929.931641" xlink:href="#DejaVuSans-48"/>
     </g>
    </g>
    <g id="patch_104">
     <path d="M 99 103.832812 
L 119 103.832812 
L 119 96.832812 
L 99 96.832812 
z
" style="fill:#4d004b;"/>
    </g>
    <g id="text_22">
     <!-- 1000&lt;=Cases -->
     <g transform="translate(127 103.832812)scale(0.1 -0.1)">
      <use xlink:href="#DejaVuSans-49"/>
      <use x="63.623047" xlink:href="#DejaVuSans-48"/>
      <use x="127.246094" xlink:href="#DejaVuSans-48"/>
      <use x="190.869141" xlink:href="#DejaVuSans-48"/>
      <use x="254.492188" xlink:href="#DejaVuSans-60"/>
      <use x="338.28125" xlink:href="#DejaVuSans-61"/>
      <use x="422.070312" xlink:href="#DejaVuSans-67"/>
      <use x="491.894531" xlink:href="#DejaVuSans-97"/>
      <use x="553.173828" xlink:href="#DejaVuSans-115"/>
      <use x="605.273438" xlink:href="#DejaVuSans-101"/>
      <use x="666.796875" xlink:href="#DejaVuSans-115"/>
     </g>
    </g>
   </g>
  </g>
 </g>
 <defs>
  <clipPath id="p99872f6e5c">
   <rect height="271.8" width="558" x="90" y="43.2"/>
  </clipPath>
 </defs>
</svg>
